<svg width="23" height="24" viewBox="0 0 23 24" fill="none" xmlns="http://www.w3.org/2000/svg">
<g id="icon-park-outline:heart-rate" clip-path="url(#clip0_31_9)">
<g id="Group">
<path id="Vector" d="M15.2754 18.5C13.9212 19.537 12.5657 20.2935 11.5 20.663C8.14584 19.5 1.91667 14.5 1.91667 9C1.91667 5.9625 4.27657 3.5 7.18751 3.5C8.97001 3.5 10.5465 4.4235 11.5 5.837C11.9861 5.11469 12.6318 4.5252 13.3825 4.11841C14.1331 3.71162 14.9667 3.4995 15.8125 3.5C18.7234 3.5 21.0833 5.9625 21.0833 9C21.0833 9.8735 20.9262 10.734 20.6487 11.5685" stroke="#0D7C66" stroke-width="4" stroke-linecap="round" stroke-linejoin="round"/>
<path id="Vector_2" d="M12.9375 14.5H14.8542L16.2917 12.5L17.7292 16.5L19.1485 14.5H21.0833" stroke="#0D7C66" stroke-width="4" stroke-linecap="round" stroke-linejoin="round"/>
</g>
</g>
<defs>
<clipPath id="clip0_31_9">
<rect width="23" height="24" fill="white"/>
</clipPath>
</defs>
</svg>
